<?xml version="1.0" encoding="UTF-8"?>
<svg id="Livello_2" data-name="Livello 2" xmlns="http://www.w3.org/2000/svg" viewBox="0 0 531.89 101.55">
  <defs>
    <style>
      .cls-1 {
        fill: #89ce19;
      }

      .cls-2 {
        fill: #ff8755;
      }

      .cls-3 {
        fill: #009bd3;
      }

      .cls-4 {
        fill: #FFFFFF;
      }
    </style>
  </defs>
  <g id="Livello_1-2" data-name="Livello 1">
    <g>
      <g>
        <path class="cls-4" d="M107.76,68.66c-4.76-4.64-7.14-10.39-7.14-17.25s2.38-12.62,7.14-17.25c4.76-4.64,10.69-6.96,17.8-6.96,5,0,9.49,1.3,13.46,3.88,3.97,2.59,6.96,6.23,8.94,10.93l-11.2,3.88c-1.02-2.41-2.53-4.26-4.52-5.56-1.99-1.29-4.22-1.94-6.68-1.94-3.49,0-6.41,1.25-8.76,3.75-2.35,2.5-3.52,5.59-3.52,9.26s1.17,6.85,3.52,9.35c2.35,2.5,5.27,3.75,8.76,3.75,2.47,0,4.7-.66,6.68-1.99,1.99-1.32,3.49-3.19,4.52-5.6l11.2,3.88c-1.99,4.7-4.97,8.34-8.94,10.93-3.97,2.59-8.46,3.88-13.46,3.88-7.11,0-13.04-2.32-17.8-6.96Z"/>
        <path class="cls-4" d="M167.38,74.72h-12.2V7.87h12.2V74.72Z"/>
        <path class="cls-4" d="M199.81,27.2c7.83,0,14.11,2.82,18.84,8.45,4.73,5.63,6.46,12.33,5.19,20.1h-35.95c.84,2.83,2.39,5.1,4.65,6.82,2.26,1.72,4.95,2.57,8.08,2.57,5.3,0,9.15-2.17,11.56-6.5l10.03,4.52c-2.11,3.79-5.07,6.82-8.9,9.08-3.83,2.26-8.18,3.39-13.05,3.39-7.11,0-13.04-2.32-17.8-6.96-4.76-4.64-7.14-10.39-7.14-17.25s2.35-12.62,7.05-17.25c4.7-4.64,10.51-6.96,17.43-6.96Zm0,10.48c-2.71,0-5.14,.8-7.27,2.39-2.14,1.6-3.63,3.72-4.47,6.37h23.58c-.84-2.65-2.32-4.77-4.43-6.37-2.11-1.6-4.58-2.39-7.41-2.39Z"/>
        <path class="cls-4" d="M267.47,33.61v-5.51h12.2v46.61h-12.2v-5.51c-3.92,4.28-8.85,6.41-14.82,6.41-6.38,0-11.71-2.32-15.99-6.96-4.28-4.64-6.41-10.39-6.41-17.25s2.14-12.62,6.41-17.25c4.28-4.64,9.61-6.96,15.99-6.96,5.96,0,10.9,2.14,14.82,6.41Zm-21.05,27.15c2.35,2.5,5.27,3.75,8.76,3.75s6.41-1.25,8.76-3.75c2.35-2.5,3.52-5.61,3.52-9.35s-1.17-6.83-3.52-9.31c-2.35-2.47-5.27-3.7-8.76-3.7s-6.41,1.25-8.76,3.75c-2.35,2.5-3.52,5.59-3.52,9.26s1.17,6.85,3.52,9.35Z"/>
        <path class="cls-4" d="M301.62,28.1v6.05c2.05-2.83,4.64-4.83,7.77-6.01,3.13-1.17,6.35-1.25,9.67-.23v11.56c-4.88-1.69-9-1.61-12.38,.23-3.37,1.84-5.06,4.8-5.06,8.9v26.11h-12.2V28.1h12.2Z"/>
        <path class="cls-4" d="M321.77,62.16l12.2-2.53c.54,4.22,3.31,6.32,8.31,6.32,2.47,0,4.46-.47,5.96-1.4,1.5-.93,2.26-2.09,2.26-3.48s-.68-2.38-2.03-3.16c-1.36-.78-3.04-1.29-5.06-1.54-2.02-.24-4.22-.63-6.59-1.17-2.38-.54-4.58-1.2-6.59-1.99-2.02-.78-3.7-2.14-5.06-4.07-1.36-1.93-2.03-4.34-2.03-7.23,0-4.22,1.82-7.72,5.47-10.52,3.64-2.8,8.2-4.2,13.69-4.2s10,1.22,13.55,3.66c3.55,2.44,5.66,5.71,6.32,9.8l-12.11,2.53c-.6-4.21-3.19-6.32-7.77-6.32-1.99,0-3.63,.42-4.92,1.26-1.3,.84-1.94,1.93-1.94,3.25s.68,2.47,2.03,3.25c1.36,.78,3.04,1.3,5.06,1.54,2.02,.24,4.21,.65,6.59,1.22,2.38,.57,4.58,1.25,6.59,2.03,2.02,.78,3.7,2.15,5.06,4.11,1.36,1.96,2.03,4.41,2.03,7.36,0,4.16-1.99,7.65-5.96,10.48-3.98,2.83-8.82,4.25-14.54,4.25s-10.4-1.22-14.05-3.66c-3.64-2.44-5.8-5.71-6.46-9.8Z"/>
        <path class="cls-4" d="M368.56,15.18c0-2.05,.72-3.78,2.17-5.19,1.45-1.41,3.19-2.12,5.24-2.12s3.7,.71,5.15,2.12c1.45,1.42,2.17,3.15,2.17,5.19s-.72,3.7-2.17,5.15c-1.45,1.45-3.16,2.17-5.15,2.17s-3.79-.72-5.24-2.17c-1.45-1.45-2.17-3.16-2.17-5.15Zm13.46,59.53h-12.2V28.1h12.2v46.61Z"/>
        <path class="cls-4" d="M427.19,33.43v-5.33h12.2v41.37c0,6.87-2.38,12.62-7.14,17.25-4.76,4.64-10.69,6.96-17.8,6.96-4.82,0-9.12-1.14-12.92-3.43-3.79-2.29-6.72-5.33-8.76-9.12l10.93-5.78c2.35,4.82,5.93,7.23,10.75,7.23,3.55,0,6.56-1.24,9.03-3.7,2.47-2.47,3.7-5.6,3.7-9.39v-1.54c-3.86,4.16-8.79,6.23-14.82,6.23-6.38,0-11.71-2.26-15.99-6.78-4.28-4.52-6.41-10.09-6.41-16.71s2.14-12.2,6.41-16.71c4.28-4.52,9.61-6.78,15.99-6.78,6.02,0,10.96,2.08,14.82,6.23Zm-21.05,26.06c2.35,2.38,5.27,3.57,8.76,3.57s6.41-1.17,8.76-3.52c2.35-2.35,3.52-5.3,3.52-8.85s-1.18-6.41-3.52-8.76c-2.35-2.35-5.27-3.52-8.76-3.52s-6.41,1.17-8.76,3.52c-2.35,2.35-3.52,5.27-3.52,8.76s1.17,6.43,3.52,8.81Z"/>
        <path class="cls-4" d="M475.88,27.2c5.54,0,10.06,1.81,13.55,5.42,3.49,3.61,5.24,8.22,5.24,13.82v28.28h-12.2v-26.11c0-3.01-.98-5.48-2.94-7.41-1.96-1.93-4.5-2.89-7.63-2.89s-5.6,.96-7.59,2.89c-1.99,1.93-2.98,4.4-2.98,7.41v26.11h-12.2V7.87h12.2v26.29c3.55-4.64,8.4-6.96,14.54-6.96Z"/>
        <path class="cls-4" d="M507.59,38.85h-9.39v-10.75h9.39V14.37l12.2-3.79V28.1h12.11v10.75h-12.11v18.52c0,4.4,2.2,6.59,6.6,6.59h5.51v10.75h-5.51c-6.38,0-11.11-1.49-14.18-4.47-3.07-2.98-4.61-7.51-4.61-13.6v-17.8Z"/>
      </g>
      <g>
        <path class="cls-1" d="M3.1,13.32L25.51,.43c1-.58,2.24-.58,3.24,0l51.15,29.53c2.95,1.7,2.94,5.96,0,7.65l-22.12,12.73c-1,.58-2.24,.58-3.24,0L3.1,20.65c-2.82-1.63-2.82-5.7,0-7.32Z"/>
        <path class="cls-3" d="M25.46,.44L2.03,14.02C.77,14.75,0,16.09,0,17.54V84.24C0,84.87,.68,85.26,1.22,84.95l27.5-15.93c1-.58,1.62-1.65,1.62-2.81V3.25c0-2.5-2.71-4.06-4.87-2.81Z"/>
        <path class="cls-2" d="M79.9,63.94l-22.12-12.73c-1-.58-2.24-.58-3.24,0L1.62,81.76c-2.17,1.25-2.16,4.38,0,5.62l23.89,13.74c1,.58,2.24,.58,3.24,0l51.15-29.53c2.95-1.7,2.94-5.96,0-7.65Z"/>
      </g>
    </g>
  </g>
</svg>